<?xml version="1.0" standalone="no"?><!DOCTYPE svg PUBLIC "-//W3C//DTD SVG 1.1//EN" "http://www.w3.org/Graphics/SVG/1.1/DTD/svg11.dtd"><svg t="1619250306184" class="icon" viewBox="0 0 1024 1024" version="1.1" xmlns="http://www.w3.org/2000/svg" p-id="9907" xmlns:xlink="http://www.w3.org/1999/xlink" width="200" height="200"><defs><style type="text/css"></style></defs><path d="M850.0224 648.0896c-34.9952 41.6512-156.5184 147.4816-156.5184 147.4816l-234.3168-20.6336c-4.6592 0.9472-6.2976-31.36-10.8544-30.5664l4.096 44.6464-16.4352 49.3056 171.8016 40.4736 202.0352-33.4336 155.7248-187.776c-33.8944-65.28-103.1936-24.1664-115.5328-9.4976z" fill="#D89961" p-id="9908"></path><path d="M728.6272 610.816c-27.52 46.8992-129.6384 171.5968-129.6384 171.5968l-234.4704 18.8672c-4.4544 1.7152-11.4688-29.8752-15.7952-28.3136l11.4944 43.3408-7.936 51.3536 176.1536 11.1616 193.5872-66.7648 122.112-211.1744c-44.3648-58.7264-105.8048-6.6048-115.5072 9.9328z" fill="#D89961" p-id="9909"></path><path d="M638.6688 564.352c-31.616-9.5232-63.8464 19.9168-70.2208 30.7712-23.9616 40.832-112.7936 174.2848-112.7936 174.2848l-204.0576 16.4096c-3.8656 1.5104-9.9584-26.0096-13.7472-24.6272l10.0096 37.7088-6.912 44.6976 153.3184 9.728 191.8464-38.784 73.5744-211.9424c0-0.0256-2.0736-32.5376-21.0176-38.2464z" fill="#D89961" p-id="9910"></path><path d="M351.7184 279.424l-0.7168 1.3824c5.1712-0.768 10.7264-1.8432 16.0512-2.7136l-15.3344 1.3312z" fill="#259EBA" p-id="9911"></path><path d="M758.5536 204.928c0-112.5376-92.9792-190.848-205.5168-190.848s-205.5168 78.3104-205.5168 190.848v107.6736h78.2848V200.0384c0-58.7264 58.7264-107.6736 127.232-107.6736s127.232 48.9216 127.232 107.6736v105.6256l78.2848-78.2848v-22.4512z" fill="#B3B4B5" p-id="9912"></path><path d="M680.2432 305.664v6.9376h78.3104V227.3792z" fill="#A0A1A2" p-id="9913"></path><path d="M673.3056 312.6016L242.944 742.9888v20.6336h620.16V312.6016z" fill="#1BA8CE" p-id="9914"></path><path d="M242.944 312.6016v430.3872l430.3616-430.3872z" fill="#3BAFDA" p-id="9915"></path><path d="M489.3952 496.512l63.616-63.616c-34.2528 0-63.616 29.3632-63.616 63.616z" fill="#1986A3" p-id="9916"></path><path d="M553.0112 432.896l-63.616 63.616c0 24.448 14.6944 44.0576 39.1424 53.8368v83.2s0 4.8896 4.8896 4.8896h44.032s4.8896 0 4.8896-4.8896v-83.2c19.584-9.7792 34.2528-29.3632 34.2528-53.8368 0.0256-34.2528-29.3376-63.616-63.5904-63.616z" fill="#14778E" p-id="9917"></path><path d="M217.344 925.952l-109.3376-255.5136 12.032 249.856s38.7328-1.3824 97.3056 5.6576z" fill="#EAAD6C" p-id="9918"></path><path d="M1024 713.1648s-39.1424-74.3168-100.7872-18.5088c-18.8928 17.0752-49.6896 63.4368-90.5216 106.7264-6.4256 6.8096-38.5024 37.0432-38.5024 37.0432l-176.7424 21.6832s-133.0944-84.992-136.4224-85.248c44.4928 14.1056 177.536 30.0544 296.6272 18.56 32.0256-3.072 81.3568-2.4064 84.864-58.368 2.176-34.6624-31.872-56.3968-71.552-59.8784-99.456-8.704-161.3056-20.7616-232.6528-47.5136-80.5632-30.208-159.3088-34.6368-229.5552-28.0576l-148.736 148.736 148.736-148.736c-95.2576 8.9344-174.848 38.272-221.6448 52.096l0.896 18.7648 109.3376 255.488c70.656 8.4992 170.3168 29.2608 266.9824 79.9744 39.1168 20.5312 249.8304-43.8528 342.784-63.744 23.5008-5.0432 30.3616-8.6272 48.1536-31.1296 34.2016-43.264 72.6784-98.7648 103.7312-141.2608l2.1248-2.8672-30.2592-21.1712c-0.0512 0 32.9728-48.7168 73.1392-32.5888z" fill="#FFC581" p-id="9919"></path><path d="M950.8096 745.7536l30.2592 21.1712c17.5104-23.8592 32.5888-43.4432 42.9056-53.76-40.1408-16.128-73.1648 32.5888-73.1648 32.5888z" fill="#F9E9DC" p-id="9920"></path><path d="M112.8704 681.8048l-4.2496-95.5392a25.6 25.6 0 0 0-26.6752-24.4224l-57.472 2.56a25.6 25.6 0 0 0-24.4224 26.7008l8.832 198.1184 89.9584 210.2272 2.6112-0.1024a25.5488 25.5488 0 0 0 24.3968-26.6752l-12.9792-290.8672z" fill="#F8FCFF" p-id="9921"></path><path d="M8.8576 789.2224l8.3712 188.288a25.5744 25.5744 0 0 0 26.7008 24.3968l54.8864-2.4576-89.9584-210.2272z" fill="#EFF2F4" p-id="9922"></path><path d="M55.6544 794.5728m-34.8672 0a34.8672 34.8672 0 1 0 69.7344 0 34.8672 34.8672 0 1 0-69.7344 0Z" fill="#A0A1A2" p-id="9923"></path><path d="M778.4448 693.6064s-13.6448 42.4448 4.8384 84.5056c30.8224 3.8144 67.328-2.1504 67.328-39.7312 0.0256-41.6768-61.1584-45.2608-72.1664-44.7744z" fill="#F9E9DC" p-id="9924"></path></svg>